<svg xmlns="http://www.w3.org/2000/svg" width="27.473" height="34.76" viewBox="0 0 27.473 34.76">
  <g id="_003-water-drop" data-name="003-water-drop" transform="translate(0.5 0.5)">
    <g id="Group_34" data-name="Group 34">
      <path id="Path_18" data-name="Path 18" d="M103.657,255.123a7.75,7.75,0,0,1-3.934-12,.674.674,0,0,0,.06-.1.661.661,0,0,0-1.13-.678,9.072,9.072,0,0,0,.04,10.8,9.146,9.146,0,0,0,4.571,3.235.661.661,0,1,0,.393-1.263Z" transform="translate(-94.129 -226.069)" fill="#4098f1" stroke="#4098f1" stroke-width="1"/>
      <path id="Path_19" data-name="Path 19" d="M81.584,15.448A5.821,5.821,0,0,0,80.45,11.98L76.265,5.767a.661.661,0,0,0-1.1,0L73.406,8.385,67.953.292a.661.661,0,0,0-1.1,0L57.5,14.185a12.294,12.294,0,1,0,22.2,7.281,12.41,12.41,0,0,0-.106-1.617A5.855,5.855,0,0,0,81.584,15.448ZM75.717,7.32l3.636,5.4.023.033a4.545,4.545,0,1,1-7.318,0l.022-.032L73.952,9.94l.01-.015Zm2.66,14.146a10.972,10.972,0,1,1-19.8-6.51l.023-.034,8.81-13.077,5.2,7.724L70.984,11.98a5.866,5.866,0,0,0,7.365,8.711q.027.387.028.775Z" transform="translate(-55.111 0)" fill="#4098f1" stroke="#4098f1" stroke-width="1"/>
      <path id="Path_20" data-name="Path 20" d="M312.883,205.127a2.248,2.248,0,0,1,.194-.919.661.661,0,1,0-1.208-.537,3.59,3.59,0,0,0,1.286,4.439.661.661,0,0,0,.735-1.1A2.263,2.263,0,0,1,312.883,205.127Z" transform="translate(-294.608 -189.84)" fill="#4098f1" stroke="#4098f1" stroke-width="1"/>
      <path id="Path_21" data-name="Path 21" d="M218.4,447.619a.661.661,0,1,0-.74.9A.666.666,0,0,0,218.4,447.619Z" transform="translate(-206.423 -417.65)" fill="#4098f1" stroke="#4098f1" stroke-width="1"/>
      <path id="Path_22" data-name="Path 22" d="M357.453,268.37a.661.661,0,1,0,0-1.1A.664.664,0,0,0,357.453,268.37Z" transform="translate(-337.196 -249.498)" fill="#4098f1" stroke="#4098f1" stroke-width="1"/>
    </g>
  </g>
</svg>
