<svg xmlns="http://www.w3.org/2000/svg" width="33.932" height="32.066" viewBox="0 0 33.932 32.066">
  <g id="_002-moisturizing" data-name="002-moisturizing" transform="translate(0.5 0.5)">
    <g id="Group_33" data-name="Group 33">
      <path id="Path_8" data-name="Path 8" d="M64.481,23.1a.65.65,0,0,0,.961,0l1.883-2.115a.643.643,0,0,0-.961-.855l-.759.853V15.66a.643.643,0,0,0-1.286,0v5.321l-.759-.853a.643.643,0,0,0-.961.855Z" transform="translate(-58.419 -15.017)" fill="#4098f1" stroke="#4098f1" stroke-width="1"/>
      <path id="Path_9" data-name="Path 9" d="M373.306,23.1a.65.65,0,0,0,.961,0l1.883-2.115a.643.643,0,1,0-.961-.855l-.759.853V15.66a.643.643,0,0,0-1.286,0v5.321l-.759-.853a.643.643,0,1,0-.961.855Z" transform="translate(-347.38 -15.017)" fill="#4098f1" stroke="#4098f1" stroke-width="1"/>
      <path id="Path_10" data-name="Path 10" d="M32.289,46.512H22.976a6.385,6.385,0,0,0-.911-3.519l-.646-1.049a.643.643,0,1,0-1.1.675l.639,1.038a5.245,5.245,0,0,1-4.519,7.912A5.3,5.3,0,0,1,11.2,46.281a5.549,5.549,0,0,1,.755-2.67l4.287-6.951a.239.239,0,0,1,.406,0l.728,1.18a.643.643,0,1,0,1.095-.675l-.727-1.18a1.515,1.515,0,0,0-1.3-.724h0a1.516,1.516,0,0,0-1.3.725l-4.3,6.976a6.469,6.469,0,0,0-.93,3.309c0,.081,0,.161,0,.241H.643A.643.643,0,0,0,0,47.155v16a.65.65,0,0,0,.807.622,4.223,4.223,0,0,1,3.219.436,5.491,5.491,0,0,0,5.507,0,4.27,4.27,0,0,1,4.268,0,5.591,5.591,0,0,0,5.566,0,4.282,4.282,0,0,1,4.273,0,5.552,5.552,0,0,0,5.566,0,4.532,4.532,0,0,1,2.967-.506.65.65,0,0,0,.759-.633V47.155A.643.643,0,0,0,32.289,46.512ZM31.646,47.8v2.434a5.634,5.634,0,0,0-3.065.753,4.32,4.32,0,0,1-4.336,0,5.616,5.616,0,0,0-2.564-.75A6.452,6.452,0,0,0,22.813,47.8h8.833Zm-30.359,0h8.8a6.552,6.552,0,0,0,1.134,2.436,6.173,6.173,0,0,0-2.694.82,4.378,4.378,0,0,1-4.211-.07A5.632,5.632,0,0,0,1.5,50.225q-.1,0-.21,0V47.8ZM28.56,63.1a4.261,4.261,0,0,1-4.269,0,5.6,5.6,0,0,0-5.57,0,4.317,4.317,0,0,1-4.273,0,5.572,5.572,0,0,0-5.566,0,4.2,4.2,0,0,1-4.209,0,5.494,5.494,0,0,0-3.386-.718V51.518a4.8,4.8,0,0,1,2.549.673,5.609,5.609,0,0,0,5.458-.1,4.36,4.36,0,0,1,3.465-.382,6.575,6.575,0,0,0,7.382,0,4.84,4.84,0,0,1,3.787.561,5.652,5.652,0,0,0,4.969,0,5.273,5.273,0,0,1,2.748-.753V62.356A5.784,5.784,0,0,0,28.56,63.1Z" transform="translate(0 -33.959)" fill="#4098f1" stroke="#4098f1" stroke-width="1"/>
      <path id="Path_11" data-name="Path 11" d="M73.463,324.351a2.056,2.056,0,1,0,2.056,2.056A2.058,2.058,0,0,0,73.463,324.351Zm0,2.826a.77.77,0,1,1,.77-.77A.77.77,0,0,1,73.463,327.177Z" transform="translate(-66.814 -304.455)" fill="#4098f1" stroke="#4098f1" stroke-width="1"/>
      <path id="Path_12" data-name="Path 12" d="M381.111,324.351a2.056,2.056,0,1,0,2.056,2.056A2.058,2.058,0,0,0,381.111,324.351Zm0,2.826a.77.77,0,1,1,.77-.77A.77.77,0,0,1,381.111,327.177Z" transform="translate(-354.674 -304.455)" fill="#4098f1" stroke="#4098f1" stroke-width="1"/>
      <path id="Path_13" data-name="Path 13" d="M228.011,381.281a2.056,2.056,0,1,0,2.056,2.056A2.058,2.058,0,0,0,228.011,381.281Zm0,2.826a.77.77,0,1,1,.77-.77A.77.77,0,0,1,228.011,384.107Z" transform="translate(-211.422 -357.723)" fill="#4098f1" stroke="#4098f1" stroke-width="1"/>
      <path id="Path_14" data-name="Path 14" d="M247.992,331.638a.643.643,0,1,0,.348-.84A.648.648,0,0,0,247.992,331.638Z" transform="translate(-231.997 -310.442)" fill="#4098f1" stroke="#4098f1" stroke-width="1"/>
      <path id="Path_15" data-name="Path 15" d="M401.795,422.443a.643.643,0,1,0-.348.839A.648.648,0,0,0,401.795,422.443Z" transform="translate(-374.795 -395.867)" fill="#4098f1" stroke="#4098f1" stroke-width="1"/>
      <path id="Path_16" data-name="Path 16" d="M92.971,422.442a.643.643,0,1,0-.348.84A.649.649,0,0,0,92.971,422.442Z" transform="translate(-85.836 -395.866)" fill="#4098f1" stroke="#4098f1" stroke-width="1"/>
      <path id="Path_17" data-name="Path 17" d="M290.87,96.878a.643.643,0,1,0,.348-.84A.649.649,0,0,0,290.87,96.878Z" transform="translate(-272.116 -90.783)" fill="#4098f1" stroke="#4098f1" stroke-width="1"/>
    </g>
  </g>
</svg>
