<svg xmlns="http://www.w3.org/2000/svg" width="24.225" height="41.327" viewBox="0 0 24.225 41.327">
  <g id="_001-thermometer" data-name="001-thermometer" transform="translate(0.52 0.5)">
    <g id="Group_20" data-name="Group 20">
      <g id="Group_19" data-name="Group 19" transform="translate(0)">
        <path id="Path_1" data-name="Path 1" d="M106.192,22.226V5.29a5.29,5.29,0,1,0-10.581,0V22.218a9.821,9.821,0,0,0,5.264,18.1l.053.008a9.821,9.821,0,0,0,5.264-18.1ZM96.77,37.713a8.325,8.325,0,0,1,0-14.419.752.752,0,0,0,.376-.654V5.29a3.786,3.786,0,1,1,7.573,0V22.64a.752.752,0,0,0,.376.654A8.325,8.325,0,1,1,96.77,37.713Z" transform="translate(-91.071)" fill="#4098f1" stroke="#4098f1" stroke-width="1"/>
      </g>
    </g>
    <g id="Group_22" data-name="Group 22" transform="translate(4.645 12.938)">
      <g id="Group_21" data-name="Group 21" transform="translate(0)">
        <path id="Path_2" data-name="Path 2" d="M146.453,149.8V138.392a.752.752,0,1,0-1.5,0V149.8a5.211,5.211,0,1,0,1.5,0Zm-.752,8.829a3.692,3.692,0,0,1,0-7.385h0a3.692,3.692,0,1,1,0,7.385Z" transform="translate(-140.489 -137.64)" fill="#4098f1" stroke="#4098f1" stroke-width="1"/>
      </g>
    </g>
    <g id="Group_24" data-name="Group 24" transform="translate(17.001 5.17)">
      <g id="Group_23" data-name="Group 23" transform="translate(0)">
        <path id="Path_3" data-name="Path 3" d="M277.381,55h-4.7a.752.752,0,1,0,0,1.5h4.7a.752.752,0,0,0,0-1.5Z" transform="translate(-271.929 -55)" fill="#4098f1" stroke="#4098f1" stroke-width="1"/>
      </g>
    </g>
    <g id="Group_26" data-name="Group 26" transform="translate(17.941 8.93)">
      <g id="Group_25" data-name="Group 25">
        <path id="Path_4" data-name="Path 4" d="M285.441,95h-2.76a.752.752,0,0,0,0,1.5h2.76a.752.752,0,1,0,0-1.5Z" transform="translate(-281.929 -95)" fill="#4098f1" stroke="#4098f1" stroke-width="1"/>
      </g>
    </g>
    <g id="Group_28" data-name="Group 28" transform="translate(17.001 12.69)">
      <g id="Group_27" data-name="Group 27" transform="translate(0)">
        <path id="Path_5" data-name="Path 5" d="M277.381,135h-4.7a.752.752,0,1,0,0,1.5h4.7a.752.752,0,1,0,0-1.5Z" transform="translate(-271.929 -135)" fill="#4098f1" stroke="#4098f1" stroke-width="1"/>
      </g>
    </g>
    <g id="Group_30" data-name="Group 30" transform="translate(17.941 16.45)">
      <g id="Group_29" data-name="Group 29">
        <path id="Path_6" data-name="Path 6" d="M285.441,175h-2.76a.752.752,0,0,0,0,1.5h2.76a.752.752,0,1,0,0-1.5Z" transform="translate(-281.929 -175)" fill="#4098f1" stroke="#4098f1" stroke-width="1"/>
      </g>
    </g>
    <g id="Group_32" data-name="Group 32" transform="translate(17.001 20.21)">
      <g id="Group_31" data-name="Group 31" transform="translate(0)">
        <path id="Path_7" data-name="Path 7" d="M277.381,215h-4.7a.752.752,0,1,0,0,1.5h4.7a.752.752,0,1,0,0-1.5Z" transform="translate(-271.929 -215)" fill="#4098f1" stroke="#4098f1" stroke-width="1"/>
      </g>
    </g>
  </g>
</svg>
