<svg xmlns="http://www.w3.org/2000/svg" width="27.483" height="27.483" viewBox="0 0 27.483 27.483">
  <g id="XMLID_1255_" transform="translate(0.5 0.561)">
    <g id="XMLID_496_">
      <path id="XMLID_691_" d="M6.812,19.848a3.968,3.968,0,0,0,3.86-.693,3.967,3.967,0,0,0,5.078,0,3.967,3.967,0,0,0,5.078,0,3.968,3.968,0,0,0,5.457-.36.516.516,0,0,0-.758-.7,2.937,2.937,0,0,1-4.319,0,.516.516,0,0,0-.758,0,2.937,2.937,0,0,1-4.319,0,.516.516,0,0,0-.758,0,2.937,2.937,0,0,1-4.319,0,.516.516,0,0,0-.758,0,2.938,2.938,0,0,1-3.481.633V13.507a3.968,3.968,0,0,0,3.86-.693,3.967,3.967,0,0,0,5.078,0,3.967,3.967,0,0,0,5.078,0,3.968,3.968,0,0,0,5.457-.36.516.516,0,0,0-.758-.7,2.937,2.937,0,0,1-4.319,0,.516.516,0,0,0-.379-.166h0a.516.516,0,0,0-.379.166,2.937,2.937,0,0,1-4.319,0,.516.516,0,0,0-.758,0,2.937,2.937,0,0,1-4.319,0,.516.516,0,0,0-.758,0,2.938,2.938,0,0,1-3.481.633V1.548A1.55,1.55,0,0,0,5.263,0H1.548A1.55,1.55,0,0,0,0,1.548v9.34a.516.516,0,0,0,1.032,0V1.548a.517.517,0,0,1,.516-.516H5.264a.517.517,0,0,1,.516.516V3.174H4.851a.516.516,0,0,0,0,1.032H5.78V6.347H3.406a.516.516,0,1,0,0,1.032H5.78V9.521H4.851a.516.516,0,1,0,0,1.032H5.78v2.142H3.406a.516.516,0,1,0,0,1.032H5.78v2.142H4.851a.516.516,0,1,0,0,1.032H5.78v2.142H3.406a.516.516,0,1,0,0,1.032H5.78v2.142H4.851a.516.516,0,1,0,0,1.032H5.78v1.625a.517.517,0,0,1-.516.516H1.548a.517.517,0,0,1-.516-.516v-9.34a.516.516,0,0,0-1.032,0v9.34a1.55,1.55,0,0,0,1.548,1.548H5.264a1.543,1.543,0,0,0,1.075-.435,3.968,3.968,0,0,0,4.334-.49,3.967,3.967,0,0,0,5.078,0,3.967,3.967,0,0,0,5.078,0,3.968,3.968,0,0,0,5.457-.36.516.516,0,1,0-.758-.7,2.937,2.937,0,0,1-4.319,0,.516.516,0,0,0-.758,0,2.937,2.937,0,0,1-4.319,0,.516.516,0,0,0-.758,0,2.937,2.937,0,0,1-4.319,0,.516.516,0,0,0-.758,0,2.938,2.938,0,0,1-3.493.627,1.558,1.558,0,0,0,.012-.19V19.848Z" transform="translate(0 0)" fill="#4098f1" stroke="#4098f1" stroke-width="1"/>
      <path id="XMLID_743_" d="M330.316,55.823l.06-.06V60.7a.516.516,0,1,0,1.032,0V55.764l.06.06a.516.516,0,1,0,.73-.73l-.941-.941a.516.516,0,0,0-.73,0l-.941.941a.516.516,0,0,0,.73.73Z" transform="translate(-312.435 -51.215)" fill="#4098f1" stroke="#4098f1" stroke-width="1"/>
      <path id="XMLID_832_" d="M427.6,1.974a.515.515,0,0,0,.365-.151l.06-.06V6.7a.516.516,0,1,0,1.032,0V1.763l.06.06a.516.516,0,1,0,.73-.73l-.941-.941a.516.516,0,0,0-.73,0l-.941.941a.516.516,0,0,0,.365.881Z" transform="translate(-405.047 -0.001)" fill="#4098f1" stroke="#4098f1" stroke-width="1"/>
      <path id="XMLID_833_" d="M.516,247.032a.516.516,0,1,0-.365-.881.516.516,0,0,0,.365.881Z" transform="translate(0 -233.305)" fill="#4098f1" stroke="#4098f1" stroke-width="1"/>
    </g>
  </g>
</svg>
